<svg viewBox="0 0 513.32 513.32" xmlns="http://www.w3.org/2000/svg" xmlns:xlink="http://www.w3.org/1999/xlink"><style>:root&gt;svg{display:none}:root&gt;svg:target{display:block}</style><svg viewBox="0 0 512.009 512.009" id="arrow-down" xmlns="http://www.w3.org/2000/svg"><path d="M508.625 247.801L392.262 131.437c-4.18-4.881-11.526-5.45-16.407-1.269-4.881 4.18-5.45 11.526-1.269 16.407.39.455.814.88 1.269 1.269l96.465 96.582H11.636C5.21 244.426 0 249.636 0 256.063s5.21 11.636 11.636 11.636H472.32l-96.465 96.465c-4.881 4.18-5.45 11.526-1.269 16.407s11.526 5.45 16.407 1.269c.455-.39.88-.814 1.269-1.269l116.364-116.364c4.511-4.537 4.511-11.867-.001-16.406z"/></svg><svg viewBox="0 0 512.009 512.009" id="arrow-right" xmlns="http://www.w3.org/2000/svg"><path d="M508.625 247.801L392.262 131.437c-4.18-4.881-11.526-5.45-16.407-1.269-4.881 4.18-5.45 11.526-1.269 16.407.39.455.814.88 1.269 1.269l96.465 96.582H11.636C5.21 244.426 0 249.636 0 256.063s5.21 11.636 11.636 11.636H472.32l-96.465 96.465c-4.881 4.18-5.45 11.526-1.269 16.407s11.526 5.45 16.407 1.269c.455-.39.88-.814 1.269-1.269l116.364-116.364c4.511-4.537 4.511-11.867-.001-16.406z"/></svg><svg viewBox="0 0 512.009 512.009" id="arrow-up" xmlns="http://www.w3.org/2000/svg"><path d="M508.625 247.801L392.262 131.437c-4.18-4.881-11.526-5.45-16.407-1.269-4.881 4.18-5.45 11.526-1.269 16.407.39.455.814.88 1.269 1.269l96.465 96.582H11.636C5.21 244.426 0 249.636 0 256.063s5.21 11.636 11.636 11.636H472.32l-96.465 96.465c-4.881 4.18-5.45 11.526-1.269 16.407s11.526 5.45 16.407 1.269c.455-.39.88-.814 1.269-1.269l116.364-116.364c4.511-4.537 4.511-11.867-.001-16.406z"/></svg><svg data-name="Capa 1" viewBox="0 0 20 19.84" id="cart" xmlns="http://www.w3.org/2000/svg"><path d="M15.12 8.28a2 2 0 00-1.36-.68h-.52L11.8 4a.4.4 0 10-.74.28l1.33 3.32H6.17l1.32-3.36A.39.39 0 106.76 4L5.32 7.6h-.49a1.45 1.45 0 00-.28 0A1.94 1.94 0 003.09 10l.74 4.42A1.85 1.85 0 005.6 16h7.45a1.84 1.84 0 001.74-1.63l.74-4.37a2.51 2.51 0 000-.27 2 2 0 00-.41-1.45zm-.37 1.54L14 14.28a1.08 1.08 0 01-1 1H5.62a1.07 1.07 0 01-1-1l-.75-4.49a1.14 1.14 0 01.85-1.37h9.01a1.16 1.16 0 011 1.24.74.74 0 01.02.16z"/><path d="M6.8 10.2a.4.4 0 00-.39.4v2.65a.4.4 0 10.79 0V10.6a.4.4 0 00-.4-.4zm2.47 0a.39.39 0 00-.39.4v2.65a.39.39 0 00.39.4.4.4 0 00.4-.4V10.6a.4.4 0 00-.4-.4zm2.47 0a.4.4 0 00-.4.4v2.65a.4.4 0 00.4.4.39.39 0 00.39-.4V10.6a.39.39 0 00-.39-.4z"/></svg><svg viewBox="0 0 18 14" id="check" xmlns="http://www.w3.org/2000/svg"><path d="M1 7l6 6L17 1"/></svg><svg viewBox="0 0 491.996 491.996" id="chevron" xmlns="http://www.w3.org/2000/svg"><path d="M484.132 124.986l-16.116-16.228c-5.072-5.068-11.82-7.86-19.032-7.86-7.208 0-13.964 2.792-19.036 7.86l-183.84 183.848L62.056 108.554c-5.064-5.068-11.82-7.856-19.028-7.856s-13.968 2.788-19.036 7.856l-16.12 16.128c-10.496 10.488-10.496 27.572 0 38.06l219.136 219.924c5.064 5.064 11.812 8.632 19.084 8.632h.084c7.212 0 13.96-3.572 19.024-8.632l218.932-219.328c5.072-5.064 7.856-12.016 7.864-19.224 0-7.212-2.792-14.068-7.864-19.128z"/></svg><svg viewBox="0 0 24 24" class="gw-6 gh-6" id="chevron-right" xmlns="http://www.w3.org/2000/svg"><path d="M8.25 4.5l7.5 7.5-7.5 7.5"/></svg><svg viewBox="0 0 16 16" id="close" xmlns="http://www.w3.org/2000/svg"><path d="M9.175 8l6.075-6.075A.833.833 0 0014.075.75L8 6.825 1.925.742A.833.833 0 00.75 1.917L6.825 8 .742 14.075a.834.834 0 101.175 1.175L8 9.175l6.075 6.075a.833.833 0 001.175-1.175L9.175 8z"/></svg><svg viewBox="0 0 36 36" id="email" xmlns="http://www.w3.org/2000/svg"><g clip-path="url(#iclip0_1_2)"><path d="M32.33 6a2 2 0 00-.41 0h-28a2 2 0 00-.53.08l14.45 14.39L32.33 6z"/><path d="M33.81 7.39l-14.56 14.5a2 2 0 01-2.82 0L2 7.5a2 2 0 00-.07.5v20a2 2 0 002 2h28a2 2 0 002-2V8a2.003 2.003 0 00-.12-.61zM5.3 28H3.91v-1.43l7.27-7.21 1.41 1.41L5.3 28zm26.61 0h-1.4l-7.29-7.23 1.41-1.41 7.27 7.21.01 1.43z"/></g><defs><clipPath id="iclip0_1_2"><path d="M0 0h36v36H0z"/></clipPath></defs></svg><svg viewBox="0 0 21 18" id="heart" xmlns="http://www.w3.org/2000/svg"><path d="M15.188 0c-1.936 0-3.631.833-4.688 2.24C9.443.833 7.748 0 5.812 0A5.818 5.818 0 000 5.814C0 12.378 9.73 17.69 10.145 17.91a.75.75 0 00.71 0C11.27 17.691 21 12.378 21 5.814A5.82 5.82 0 0015.187 0zM10.5 16.391c-1.712-.997-9-5.542-9-10.577A4.32 4.32 0 015.813 1.5c1.823 0 3.354.972 3.993 2.532a.75.75 0 001.388 0c.64-1.563 2.17-2.532 3.993-2.532A4.318 4.318 0 0119.5 5.814c0 5.027-7.29 9.579-9 10.577z"/></svg><svg viewBox="0 0 408.726 408.726" id="heart-2" xmlns="http://www.w3.org/2000/svg"><path d="M335.372 21.318c-48.44-19.748-99.087-2.463-131.011 44.011-31.938-46.474-82.6-63.759-131.015-44.011C27.937 39.837-13.146 93.817 3.965 168.574 19.371 235.928 72.44 293.896 114.24 330.663c45.066 39.634 87.158 63.882 87.578 64.123a5.116 5.116 0 002.545.676c.881 0 1.756-.225 2.545-.676.42-.241 42.511-24.489 87.572-64.118 41.8-36.767 94.868-94.73 110.285-162.089 17.105-74.762-23.983-128.742-69.393-147.261zm59.413 144.973c-26.45 115.558-169.487 205.486-190.418 218.097-20.931-12.606-163.968-102.473-190.418-218.097C-1.826 97.36 35.683 47.737 77.212 30.8c12.59-5.135 24.643-7.388 36.019-7.388 38.917 0 69.857 26.378 86.769 53.996 1.859 3.036 6.866 3.036 8.735 0 21.851-35.687 67.117-69.31 122.772-46.608 41.533 16.937 79.047 66.56 63.278 135.491z"/></svg><svg viewBox="0 0 56.7 56.7" id="instagram" xmlns="http://www.w3.org/2000/svg"><path d="M28.2 16.7c-7 0-12.8 5.7-12.8 12.8s5.7 12.8 12.8 12.8S41 36.5 41 29.5s-5.8-12.8-12.8-12.8zm0 21c-4.5 0-8.2-3.7-8.2-8.2s3.7-8.2 8.2-8.2 8.2 3.7 8.2 8.2-3.7 8.2-8.2 8.2z"/><circle cx="41.5" cy="16.4" r="2.9"/><path d="M49 8.9c-2.6-2.7-6.3-4.1-10.5-4.1H17.9c-8.7 0-14.5 5.8-14.5 14.5v20.5c0 4.3 1.4 8 4.2 10.7 2.7 2.6 6.3 3.9 10.4 3.9h20.4c4.3 0 7.9-1.4 10.5-3.9 2.7-2.6 4.1-6.3 4.1-10.6V19.3c0-4.2-1.4-7.8-4-10.4zm-.4 31c0 3.1-1.1 5.6-2.9 7.3s-4.3 2.6-7.3 2.6H18c-3 0-5.5-.9-7.3-2.6C8.9 45.4 8 42.9 8 39.8V19.3c0-3 .9-5.5 2.7-7.3 1.7-1.7 4.3-2.6 7.3-2.6h20.6c3 0 5.5.9 7.3 2.7 1.7 1.8 2.7 4.3 2.7 7.2v20.6z"/></svg><svg viewBox="0 0 14 20" id="location" xmlns="http://www.w3.org/2000/svg"><path d="M7 0C3.13 0 0 3.13 0 7c0 5.25 7 13 7 13s7-7.75 7-13c0-3.87-3.13-7-7-7zm0 9.5a2.5 2.5 0 110-5 2.5 2.5 0 010 5z"/></svg><svg viewBox="0 0 20 16" id="mail" xmlns="http://www.w3.org/2000/svg"><path d="M20 4.608v8.142a3.25 3.25 0 01-3.066 3.245L16.75 16H3.25a3.25 3.25 0 01-3.245-3.066L0 12.75V4.608l9.652 5.056a.75.75 0 00.696 0L20 4.608zM3.25 0h13.5a3.25 3.25 0 013.234 2.924L10 8.154.016 2.924A3.25 3.25 0 013.064.005L3.25 0h13.5-13.5z"/></svg><svg viewBox="0 0 400 400" id="phone" xmlns="http://www.w3.org/2000/svg"><path d="M291.171 245.258c-8.322-8.55-31.977-24.567-47.48-24.567-3.592 0-6.727.798-9.292 2.451-7.58 4.845-13.623 8.607-16.53 8.607-1.596 0-3.306-1.425-7.068-4.674l-.627-.57c-10.43-9.063-12.654-11.4-16.7-15.618l-1.027-1.083c-.74-.741-1.368-1.425-1.995-2.052-3.534-3.648-6.099-6.27-15.162-16.53l-.399-.456c-4.332-4.902-7.182-8.094-7.353-10.431-.17-2.28 1.824-5.985 6.897-12.882 6.156-8.322 6.384-18.582.741-30.495-4.503-9.405-11.856-18.411-18.354-26.334l-.57-.684c-5.586-6.84-12.084-10.26-19.323-10.26-8.037 0-14.706 4.332-18.24 6.612-.285.171-.57.399-.855.57-7.923 5.016-13.68 11.913-15.846 18.924-3.249 10.545-5.415 24.225 10.146 52.668 13.452 24.624 25.65 41.154 45.03 61.047 18.24 18.696 26.334 24.738 44.46 37.848 20.178 14.592 39.558 22.971 53.124 22.971 12.597 0 22.515 0 36.651-17.043 14.82-17.898 8.664-28.842-.228-38.019z"/></svg><svg viewBox="0 0 30 25" id="sale" xmlns="http://www.w3.org/2000/svg"><path fill-rule="evenodd" d="M26.942 1.003H3.057c-1.135 0-2.055.887-2.055 1.98V16.7c0 1.094.92 1.98 2.055 1.98h9.79l-2.255 5.316 6.467-5.315h9.883c1.135 0 2.056-.887 2.056-1.981V2.984c0-1.094-.92-1.981-2.056-1.981z"/></svg><svg viewBox="0 0 512 512" id="search" xmlns="http://www.w3.org/2000/svg"><path d="M508.875 493.792L353.089 338.005c32.358-35.927 52.245-83.296 52.245-135.339C405.333 90.917 314.417 0 202.667 0S0 90.917 0 202.667s90.917 202.667 202.667 202.667c52.043 0 99.411-19.887 135.339-52.245l155.786 155.786a10.634 10.634 0 007.542 3.125c2.729 0 5.458-1.042 7.542-3.125 4.166-4.167 4.166-10.917-.001-15.083zM202.667 384c-99.979 0-181.333-81.344-181.333-181.333S102.688 21.333 202.667 21.333 384 102.677 384 202.667 302.646 384 202.667 384z"/></svg><svg viewBox="0 0 64 64" data-name="Layer 2" id="shopping-bag" xmlns="http://www.w3.org/2000/svg"><path d="M46.77 22.29a1 1 0 00-1-.87h-5.51v-2a8.26 8.26 0 00-16.52 0v2h-5.52a1 1 0 00-1 .87l-3.71 28.14a1 1 0 00.26.81c.42.45.88.91 1.38 1.36a1 1 0 00.67.26h32.36a1 1 0 00.67-.26c.49-.45 1-.91 1.38-1.36a1 1 0 00.26-.81zm-21-2.89a6.26 6.26 0 0112.52 0v2H25.74zm22 31.46H16.21l-.66-.64 3.54-26.8H44.9l3.54 26.8z"/></svg><svg viewBox="0 0 513.323 513.323" id="user" xmlns="http://www.w3.org/2000/svg"><path d="M256.661 257.323c-135.275 0-245.333 110.059-245.333 245.333 0 5.888 4.779 10.667 10.667 10.667s10.667-4.779 10.667-10.667c0-123.52 100.48-224 224-224s224 100.48 224 224c0 5.888 4.779 10.667 10.667 10.667s10.667-4.779 10.667-10.667c-.001-135.296-110.06-245.333-245.335-245.333zm0-257.323c-64.683 0-117.333 52.629-117.333 117.333s52.651 117.333 117.333 117.333 117.333-52.629 117.333-117.333S321.344 0 256.661 0zm0 213.333c-52.928 0-96-43.072-96-96s43.072-96 96-96 96 43.072 96 96-43.072 96-96 96z"/></svg><svg viewBox="0 0 17 10" id="vk" xmlns="http://www.w3.org/2000/svg"><path fill-rule="evenodd" clip-rule="evenodd" d="M16.6.694c.126-.391 0-.676-.558-.676h-1.855c-.468 0-.684.25-.81.516 0 0-.954 2.278-2.286 3.755-.432.427-.63.569-.864.569-.127 0-.289-.142-.289-.534V.676c0-.462-.144-.676-.54-.676H6.481c-.288 0-.468.214-.468.427 0 .445.666.552.738 1.797v2.707c0 .587-.106.694-.342.694-.63 0-2.16-2.295-3.078-4.911C3.152.196 2.97 0 2.503 0H.63C.09 0 0 .249 0 .516c0 .48.63 2.9 2.935 6.103 1.53 2.188 3.708 3.363 5.67 3.363 1.19 0 1.333-.267 1.333-.712V7.616c0-.534.108-.623.487-.623.27 0 .756.142 1.854 1.192C13.539 9.431 13.755 10 14.457 10h1.855c.54 0 .792-.267.648-.783-.162-.516-.774-1.263-1.567-2.153-.432-.498-1.08-1.05-1.278-1.316-.27-.356-.198-.499 0-.819-.018 0 2.251-3.167 2.485-4.236"/></svg></svg>