<svg data-name="Capa 1" id="Capa_1" viewBox="0 0 20 19.84" xmlns="http://www.w3.org/2000/svg"><path d="M15.12 8.28a2 2 0 00-1.36-.68h-.52L11.8 4a.4.4 0 10-.74.28l1.33 3.32H6.17l1.32-3.36A.39.39 0 106.76 4L5.32 7.6h-.49a1.45 1.45 0 00-.28 0A1.94 1.94 0 003.09 10l.74 4.42A1.85 1.85 0 005.6 16h7.45a1.84 1.84 0 001.74-1.63l.74-4.37a2.51 2.51 0 000-.27 2 2 0 00-.41-1.45zm-.37 1.54L14 14.28a1.08 1.08 0 01-1 1H5.62a1.07 1.07 0 01-1-1l-.75-4.49a1.14 1.14 0 01.85-1.37h9.01a1.16 1.16 0 011 1.24.74.74 0 01.02.16z"/><path d="M6.8 10.2a.4.4 0 00-.39.4v2.65a.4.4 0 10.79 0V10.6a.4.4 0 00-.4-.4zm2.47 0a.39.39 0 00-.39.4v2.65a.39.39 0 00.39.4.4.4 0 00.4-.4V10.6a.4.4 0 00-.4-.4zm2.47 0a.4.4 0 00-.4.4v2.65a.4.4 0 00.4.4.39.39 0 00.39-.4V10.6a.39.39 0 00-.39-.4z"/></svg>