<svg width="21" height="18" fill="none" xmlns="http://www.w3.org/2000/svg"><path d="M15.188 0c-1.936 0-3.631.833-4.688 2.24C9.443.833 7.748 0 5.812 0A5.818 5.818 0 000 5.814C0 12.378 9.73 17.69 10.145 17.91a.75.75 0 00.71 0C11.27 17.691 21 12.378 21 5.814A5.82 5.82 0 0015.187 0zM10.5 16.391c-1.712-.997-9-5.542-9-10.577A4.32 4.32 0 015.813 1.5c1.823 0 3.354.972 3.993 2.532a.75.75 0 001.388 0c.64-1.563 2.17-2.532 3.993-2.532A4.318 4.318 0 0119.5 5.814c0 5.027-7.29 9.579-9 10.577z" fill="#000"/></svg>