<svg width="17" height="10" fill="none" xmlns="http://www.w3.org/2000/svg"><path fill-rule="evenodd" clip-rule="evenodd" d="M16.6.694c.126-.391 0-.676-.558-.676h-1.855c-.468 0-.684.25-.81.516 0 0-.954 2.278-2.286 3.755-.432.427-.63.569-.864.569-.127 0-.289-.142-.289-.534V.676c0-.462-.144-.676-.54-.676H6.481c-.288 0-.468.214-.468.427 0 .445.666.552.738 1.797v2.707c0 .587-.106.694-.342.694-.63 0-2.16-2.295-3.078-4.911C3.152.196 2.97 0 2.503 0H.63C.09 0 0 .249 0 .516c0 .48.63 2.9 2.935 6.103 1.53 2.188 3.708 3.363 5.67 3.363 1.19 0 1.333-.267 1.333-.712V7.616c0-.534.108-.623.487-.623.27 0 .756.142 1.854 1.192C13.539 9.431 13.755 10 14.457 10h1.855c.54 0 .792-.267.648-.783-.162-.516-.774-1.263-1.567-2.153-.432-.498-1.08-1.05-1.278-1.316-.27-.356-.198-.499 0-.819-.018 0 2.251-3.167 2.485-4.236" fill="#000"/></svg>